<svg width="248" height="52" viewBox="0 0 248 52" fill="none" xmlns="http://www.w3.org/2000/svg">
<g clip-path="url(#clip0_133_4464)">
<path d="M52 9.75L42.25 0C40.0949 2.15451 37.1723 3.36486 34.125 3.36486C31.0777 3.36486 28.1551 2.15451 26 0L19.5 6.5L29.25 16.25L16.25 29.25L6.5 19.5L0 26C2.15451 28.1551 3.36486 31.0777 3.36486 34.125C3.36486 37.1723 2.15451 40.0949 0 42.25L9.75 52C11.9051 49.8455 14.8277 48.6351 17.875 48.6351C20.9223 48.6351 23.8449 49.8455 26 52L32.5 45.5L22.75 35.75L35.75 22.75L45.5 32.5L52 26C49.8455 23.8449 48.6351 20.9223 48.6351 17.875C48.6351 14.8277 49.8455 11.9051 52 9.75Z" fill="white"/>
</g>
<path d="M72.0369 46V6.14358H82.5671C84.7713 6.14358 86.515 6.63424 87.7983 7.61555C89.0966 8.59686 90.0251 9.99335 90.5837 11.805C91.1423 13.6167 91.4216 15.7755 91.4216 18.2817C91.4216 20.6972 91.1876 22.8033 90.7196 24.5998C90.2516 26.3813 89.4137 27.7627 88.2059 28.744C87.0132 29.7253 85.3148 30.216 83.1106 30.216H79.8723V46H72.0369ZM79.8723 23.0599H80.3252C81.8047 23.0599 82.7105 22.6447 83.0427 21.8144C83.3748 20.9841 83.5409 19.7612 83.5409 18.1458C83.5409 16.6361 83.3748 15.4736 83.0427 14.6584C82.7256 13.828 81.9632 13.4128 80.7555 13.4128H79.8723V23.0599ZM105.957 46.3623C102.636 46.3623 100.19 45.4339 98.6202 43.5769C97.0501 41.7049 96.265 38.9572 96.265 35.3339V6.14358H104.01V35.0168C104.01 35.6811 104.048 36.3227 104.123 36.9417C104.199 37.5456 104.372 38.0438 104.644 38.4363C104.916 38.8289 105.354 39.0251 105.957 39.0251C106.576 39.0251 107.022 38.8364 107.294 38.459C107.565 38.0665 107.731 37.5607 107.792 36.9417C107.867 36.3227 107.905 35.6811 107.905 35.0168V6.14358H115.65V35.3339C115.65 38.9572 114.865 41.7049 113.295 43.5769C111.725 45.4339 109.279 46.3623 105.957 46.3623ZM121.49 46V6.14358H129.461V39.2063H137.659V46H121.49ZM152.172 46.3623C148.533 46.3623 145.907 45.4565 144.291 43.6448C142.691 41.8332 141.891 38.9496 141.891 34.9942V31.0991H149.771V36.0812C149.771 37.0021 149.907 37.7268 150.179 38.2552C150.466 38.7685 150.957 39.0251 151.651 39.0251C152.376 39.0251 152.874 38.8138 153.146 38.391C153.432 37.9683 153.576 37.2739 153.576 36.3076C153.576 35.0848 153.455 34.0657 153.214 33.2505C152.972 32.4201 152.549 31.6351 151.945 30.8953C151.357 30.1405 150.534 29.2648 149.477 28.2684L145.899 24.8716C143.227 22.3503 141.891 19.4668 141.891 16.2209C141.891 12.8241 142.676 10.2349 144.246 8.45344C145.831 6.67198 148.118 5.78125 151.107 5.78125C154.761 5.78125 157.35 6.75501 158.875 8.70254C160.415 10.6501 161.185 13.6091 161.185 17.5797H153.078V14.8395C153.078 14.296 152.919 13.8733 152.602 13.5714C152.3 13.2694 151.885 13.1185 151.357 13.1185C150.722 13.1185 150.254 13.2996 149.953 13.662C149.666 14.0092 149.522 14.4621 149.522 15.0207C149.522 15.5793 149.673 16.1832 149.975 16.8323C150.277 17.4815 150.873 18.2288 151.764 19.0743L156.361 23.4902C157.282 24.3658 158.128 25.2943 158.898 26.2756C159.668 27.2418 160.287 28.3741 160.755 29.6725C161.223 30.9557 161.457 32.5258 161.457 34.3828C161.457 38.1268 160.762 41.0632 159.373 43.1919C157.999 45.3055 155.599 46.3623 152.172 46.3623ZM166.911 46V6.14358L182.854 6.14358V13.8431H175.019V21.6106H182.537V29.1063H175.019V38.2325H183.375V46H166.911Z" fill="white"/>
<defs>
<clipPath id="clip0_133_4464">
<rect width="52" height="52" fill="white"/>
</clipPath>
</defs>
</svg>
